<svg id="visual" viewBox="0 0 4000 300" width="4000" height="300" xmlns="http://www.w3.org/2000/svg" xmlns:xlink="http://www.w3.org/1999/xlink" version="1.1"><rect x="0" y="0" width="4000" height="300" fill="#ffffff"></rect><path d="M0 171L66.7 173.2C133.3 175.3 266.7 179.7 400 182.7C533.3 185.7 666.7 187.3 800 188C933.3 188.7 1066.7 188.3 1200 182.3C1333.3 176.3 1466.7 164.7 1600 163.7C1733.3 162.7 1866.7 172.3 2000 178.3C2133.3 184.3 2266.7 186.7 2400 185.5C2533.3 184.3 2666.7 179.7 2800 177.3C2933.3 175 3066.7 175 3200 172.2C3333.3 169.3 3466.7 163.7 3600 163.8C3733.3 164 3866.7 170 3933.3 173L4000 176L4000 0L3933.3 0C3866.7 0 3733.3 0 3600 0C3466.7 0 3333.3 0 3200 0C3066.7 0 2933.3 0 2800 0C2666.7 0 2533.3 0 2400 0C2266.7 0 2133.3 0 2000 0C1866.7 0 1733.3 0 1600 0C1466.7 0 1333.3 0 1200 0C1066.7 0 933.3 0 800 0C666.7 0 533.3 0 400 0C266.7 0 133.3 0 66.7 0L0 0Z" fill="#b3ded9"></path><path d="M0 64L66.7 65.2C133.3 66.3 266.7 68.7 400 73.8C533.3 79 666.7 87 800 87C933.3 87 1066.7 79 1200 80.5C1333.3 82 1466.7 93 1600 95.8C1733.3 98.7 1866.7 93.3 2000 89.5C2133.3 85.7 2266.7 83.3 2400 80.7C2533.3 78 2666.7 75 2800 79.8C2933.3 84.7 3066.7 97.3 3200 97.7C3333.3 98 3466.7 86 3600 80.3C3733.3 74.7 3866.7 75.3 3933.3 75.7L4000 76L4000 0L3933.3 0C3866.7 0 3733.3 0 3600 0C3466.7 0 3333.3 0 3200 0C3066.7 0 2933.3 0 2800 0C2666.7 0 2533.3 0 2400 0C2266.7 0 2133.3 0 2000 0C1866.7 0 1733.3 0 1600 0C1466.7 0 1333.3 0 1200 0C1066.7 0 933.3 0 800 0C666.7 0 533.3 0 400 0C266.7 0 133.3 0 66.7 0L0 0Z" fill="#9bc6c1"></path></svg>