<svg id="visual" viewBox="0 0 4000 500" width="4000" height="500" xmlns="http://www.w3.org/2000/svg" xmlns:xlink="http://www.w3.org/1999/xlink" version="1.1"><rect x="0" y="0" width="4000" height="500" fill="#ffffff"></rect><path d="M0 215L74 223.7C148 232.3 296 249.7 444.2 224.7C592.3 199.7 740.7 132.3 888.8 97C1037 61.7 1185 58.3 1333.2 73.5C1481.3 88.7 1629.7 122.3 1777.8 134C1926 145.7 2074 135.3 2222.2 156.3C2370.3 177.3 2518.7 229.7 2666.8 240.8C2815 252 2963 222 3111.2 208C3259.3 194 3407.7 196 3555.8 202.7C3704 209.3 3852 220.7 3926 226.3L4000 232L4000 501L3926 501C3852 501 3704 501 3555.8 501C3407.7 501 3259.3 501 3111.2 501C2963 501 2815 501 2666.8 501C2518.7 501 2370.3 501 2222.2 501C2074 501 1926 501 1777.8 501C1629.7 501 1481.3 501 1333.2 501C1185 501 1037 501 888.8 501C740.7 501 592.3 501 444.2 501C296 501 148 501 74 501L0 501Z" fill="#b3ded9"></path><path d="M0 402L74 375.8C148 349.7 296 297.3 444.2 287.8C592.3 278.3 740.7 311.7 888.8 309.8C1037 308 1185 271 1333.2 260.3C1481.3 249.7 1629.7 265.3 1777.8 285.8C1926 306.3 2074 331.7 2222.2 337.7C2370.3 343.7 2518.7 330.3 2666.8 323.8C2815 317.3 2963 317.7 3111.2 321.3C3259.3 325 3407.7 332 3555.8 318.5C3704 305 3852 271 3926 254L4000 237L4000 501L3926 501C3852 501 3704 501 3555.8 501C3407.7 501 3259.3 501 3111.2 501C2963 501 2815 501 2666.8 501C2518.7 501 2370.3 501 2222.2 501C2074 501 1926 501 1777.8 501C1629.7 501 1481.3 501 1333.2 501C1185 501 1037 501 888.8 501C740.7 501 592.3 501 444.2 501C296 501 148 501 74 501L0 501Z" fill="#9bc6c1"></path></svg>